<?xml version="1.0" encoding="UTF-8"?>
<svg xmlns="http://www.w3.org/2000/svg" xmlns:xlink="http://www.w3.org/1999/xlink" width="600pt" height="600pt" viewBox="0 0 600 600" version="1.1">
<defs>
<clipPath id="clip1">
  <path d="M 10 10 L 590 10 L 590 590 L 10 590 Z M 10 10 "/>
</clipPath>
<clipPath id="clip2">
  <path d="M 590 300 L 589.550781 381.230469 L 588.210938 414.699219 L 585.964844 440.117188 L 582.8125 461.207031 L 578.742188 479.398438 L 573.738281 495.398438 L 567.78125 509.625 L 560.839844 522.335938 L 552.882812 533.707031 L 543.859375 543.859375 L 533.707031 552.882812 L 522.335938 560.839844 L 509.625 567.78125 L 495.398438 573.738281 L 479.398438 578.742188 L 461.207031 582.8125 L 440.117188 585.964844 L 414.699219 588.210938 L 381.230469 589.550781 L 300 590 L 218.769531 589.550781 L 185.300781 588.210938 L 159.882812 585.964844 L 138.792969 582.8125 L 120.601562 578.742188 L 104.601562 573.738281 L 90.375 567.78125 L 77.664062 560.839844 L 66.292969 552.882812 L 56.140625 543.859375 L 47.117188 533.707031 L 39.160156 522.335938 L 32.21875 509.625 L 26.261719 495.398438 L 21.257812 479.398438 L 17.1875 461.207031 L 14.035156 440.117188 L 11.789062 414.699219 L 10.449219 381.230469 L 10 300 L 10.449219 218.769531 L 11.789062 185.300781 L 14.035156 159.882812 L 17.1875 138.792969 L 21.257812 120.601562 L 26.261719 104.601562 L 32.21875 90.375 L 39.160156 77.664062 L 47.117188 66.292969 L 56.140625 56.140625 L 66.292969 47.117188 L 77.664062 39.160156 L 90.375 32.21875 L 104.601562 26.261719 L 120.601562 21.257812 L 138.792969 17.1875 L 159.882812 14.035156 L 185.300781 11.789062 L 218.769531 10.449219 L 300 10 L 381.230469 10.449219 L 414.699219 11.789062 L 440.117188 14.035156 L 461.207031 17.1875 L 479.398438 21.257812 L 495.398438 26.261719 L 509.625 32.21875 L 522.335938 39.160156 L 533.707031 47.117188 L 543.859375 56.140625 L 552.882812 66.292969 L 560.839844 77.664062 L 567.78125 90.375 L 573.738281 104.601562 L 578.742188 120.601562 L 582.8125 138.792969 L 585.964844 159.882812 L 588.210938 185.300781 L 589.550781 218.769531 Z M 590 300 "/>
</clipPath>
<clipPath id="clip3">
  <path d="M 153 387 L 417 387 L 417 533 L 153 533 Z M 153 387 "/>
</clipPath>
<clipPath id="clip4">
  <path d="M 590 300 L 589.550781 381.230469 L 588.210938 414.699219 L 585.964844 440.117188 L 582.8125 461.207031 L 578.742188 479.398438 L 573.738281 495.398438 L 567.78125 509.625 L 560.839844 522.335938 L 552.882812 533.707031 L 543.859375 543.859375 L 533.707031 552.882812 L 522.335938 560.839844 L 509.625 567.78125 L 495.398438 573.738281 L 479.398438 578.742188 L 461.207031 582.8125 L 440.117188 585.964844 L 414.699219 588.210938 L 381.230469 589.550781 L 300 590 L 218.769531 589.550781 L 185.300781 588.210938 L 159.882812 585.964844 L 138.792969 582.8125 L 120.601562 578.742188 L 104.601562 573.738281 L 90.375 567.78125 L 77.664062 560.839844 L 66.292969 552.882812 L 56.140625 543.859375 L 47.117188 533.707031 L 39.160156 522.335938 L 32.21875 509.625 L 26.261719 495.398438 L 21.257812 479.398438 L 17.1875 461.207031 L 14.035156 440.117188 L 11.789062 414.699219 L 10.449219 381.230469 L 10 300 L 10.449219 218.769531 L 11.789062 185.300781 L 14.035156 159.882812 L 17.1875 138.792969 L 21.257812 120.601562 L 26.261719 104.601562 L 32.21875 90.375 L 39.160156 77.664062 L 47.117188 66.292969 L 56.140625 56.140625 L 66.292969 47.117188 L 77.664062 39.160156 L 90.375 32.21875 L 104.601562 26.261719 L 120.601562 21.257812 L 138.792969 17.1875 L 159.882812 14.035156 L 185.300781 11.789062 L 218.769531 10.449219 L 300 10 L 381.230469 10.449219 L 414.699219 11.789062 L 440.117188 14.035156 L 461.207031 17.1875 L 479.398438 21.257812 L 495.398438 26.261719 L 509.625 32.21875 L 522.335938 39.160156 L 533.707031 47.117188 L 543.859375 56.140625 L 552.882812 66.292969 L 560.839844 77.664062 L 567.78125 90.375 L 573.738281 104.601562 L 578.742188 120.601562 L 582.8125 138.792969 L 585.964844 159.882812 L 588.210938 185.300781 L 589.550781 218.769531 Z M 590 300 "/>
</clipPath>
<clipPath id="clip5">
  <path d="M 363 208 L 447 208 L 447 411 L 363 411 Z M 363 208 "/>
</clipPath>
<clipPath id="clip6">
  <path d="M 590 300 L 589.550781 381.230469 L 588.210938 414.699219 L 585.964844 440.117188 L 582.8125 461.207031 L 578.742188 479.398438 L 573.738281 495.398438 L 567.78125 509.625 L 560.839844 522.335938 L 552.882812 533.707031 L 543.859375 543.859375 L 533.707031 552.882812 L 522.335938 560.839844 L 509.625 567.78125 L 495.398438 573.738281 L 479.398438 578.742188 L 461.207031 582.8125 L 440.117188 585.964844 L 414.699219 588.210938 L 381.230469 589.550781 L 300 590 L 218.769531 589.550781 L 185.300781 588.210938 L 159.882812 585.964844 L 138.792969 582.8125 L 120.601562 578.742188 L 104.601562 573.738281 L 90.375 567.78125 L 77.664062 560.839844 L 66.292969 552.882812 L 56.140625 543.859375 L 47.117188 533.707031 L 39.160156 522.335938 L 32.21875 509.625 L 26.261719 495.398438 L 21.257812 479.398438 L 17.1875 461.207031 L 14.035156 440.117188 L 11.789062 414.699219 L 10.449219 381.230469 L 10 300 L 10.449219 218.769531 L 11.789062 185.300781 L 14.035156 159.882812 L 17.1875 138.792969 L 21.257812 120.601562 L 26.261719 104.601562 L 32.21875 90.375 L 39.160156 77.664062 L 47.117188 66.292969 L 56.140625 56.140625 L 66.292969 47.117188 L 77.664062 39.160156 L 90.375 32.21875 L 104.601562 26.261719 L 120.601562 21.257812 L 138.792969 17.1875 L 159.882812 14.035156 L 185.300781 11.789062 L 218.769531 10.449219 L 300 10 L 381.230469 10.449219 L 414.699219 11.789062 L 440.117188 14.035156 L 461.207031 17.1875 L 479.398438 21.257812 L 495.398438 26.261719 L 509.625 32.21875 L 522.335938 39.160156 L 533.707031 47.117188 L 543.859375 56.140625 L 552.882812 66.292969 L 560.839844 77.664062 L 567.78125 90.375 L 573.738281 104.601562 L 578.742188 120.601562 L 582.8125 138.792969 L 585.964844 159.882812 L 588.210938 185.300781 L 589.550781 218.769531 Z M 590 300 "/>
</clipPath>
<clipPath id="clip7">
  <path d="M 219 115 L 456 115 L 456 203 L 219 203 Z M 219 115 "/>
</clipPath>
<clipPath id="clip8">
  <path d="M 590 300 L 589.550781 381.230469 L 588.210938 414.699219 L 585.964844 440.117188 L 582.8125 461.207031 L 578.742188 479.398438 L 573.738281 495.398438 L 567.78125 509.625 L 560.839844 522.335938 L 552.882812 533.707031 L 543.859375 543.859375 L 533.707031 552.882812 L 522.335938 560.839844 L 509.625 567.78125 L 495.398438 573.738281 L 479.398438 578.742188 L 461.207031 582.8125 L 440.117188 585.964844 L 414.699219 588.210938 L 381.230469 589.550781 L 300 590 L 218.769531 589.550781 L 185.300781 588.210938 L 159.882812 585.964844 L 138.792969 582.8125 L 120.601562 578.742188 L 104.601562 573.738281 L 90.375 567.78125 L 77.664062 560.839844 L 66.292969 552.882812 L 56.140625 543.859375 L 47.117188 533.707031 L 39.160156 522.335938 L 32.21875 509.625 L 26.261719 495.398438 L 21.257812 479.398438 L 17.1875 461.207031 L 14.035156 440.117188 L 11.789062 414.699219 L 10.449219 381.230469 L 10 300 L 10.449219 218.769531 L 11.789062 185.300781 L 14.035156 159.882812 L 17.1875 138.792969 L 21.257812 120.601562 L 26.261719 104.601562 L 32.21875 90.375 L 39.160156 77.664062 L 47.117188 66.292969 L 56.140625 56.140625 L 66.292969 47.117188 L 77.664062 39.160156 L 90.375 32.21875 L 104.601562 26.261719 L 120.601562 21.257812 L 138.792969 17.1875 L 159.882812 14.035156 L 185.300781 11.789062 L 218.769531 10.449219 L 300 10 L 381.230469 10.449219 L 414.699219 11.789062 L 440.117188 14.035156 L 461.207031 17.1875 L 479.398438 21.257812 L 495.398438 26.261719 L 509.625 32.21875 L 522.335938 39.160156 L 533.707031 47.117188 L 543.859375 56.140625 L 552.882812 66.292969 L 560.839844 77.664062 L 567.78125 90.375 L 573.738281 104.601562 L 578.742188 120.601562 L 582.8125 138.792969 L 585.964844 159.882812 L 588.210938 185.300781 L 589.550781 218.769531 Z M 590 300 "/>
</clipPath>
</defs>
<g id="surface21">
<g clip-path="url(#clip1)" clip-rule="nonzero">
<g clip-path="url(#clip2)" clip-rule="nonzero">
<rect x="0" y="0" width="600" height="600" style="fill:rgb(94.117647%,100%,100%);fill-opacity:1;stroke:none;"/>
<path style=" stroke:none;fill-rule:nonzero;fill:rgb(10.196078%,10.196078%,10.196078%);fill-opacity:1;" d="M -1.308594 575.75 L 86.371094 -48.121094 L 601.308594 24.25 L 513.628906 648.121094 Z M 111.207031 -9.285156 L 150.816406 -3.71875 L 156.382812 -43.328125 L 116.773438 -48.894531 Z M 100.769531 64.984375 L 140.378906 70.550781 L 145.945312 30.941406 L 106.335938 25.375 Z M 90.332031 139.253906 L 129.941406 144.820312 L 135.507812 105.210938 L 95.898438 99.644531 Z M 79.894531 213.527344 L 119.503906 219.09375 L 125.070312 179.480469 L 85.460938 173.914062 Z M 69.453125 287.796875 L 109.066406 293.363281 L 114.632812 253.75 L 75.023438 248.183594 Z M 59.015625 362.066406 L 98.628906 367.632812 L 104.195312 328.023438 L 64.582031 322.453125 Z M 48.578125 436.335938 L 88.191406 441.902344 L 93.757812 402.292969 L 54.144531 396.726562 Z M 38.140625 510.605469 L 77.75 516.171875 L 83.320312 476.5625 L 43.707031 470.996094 Z M 27.703125 584.875 L 67.3125 590.441406 L 72.878906 550.832031 L 33.269531 545.265625 Z M 527.121094 49.167969 L 566.730469 54.734375 L 572.296875 15.125 L 532.6875 9.558594 Z M 516.679688 123.4375 L 556.292969 129.003906 L 561.859375 89.394531 L 522.25 83.828125 Z M 506.242188 197.707031 L 545.855469 203.273438 L 551.421875 163.664062 L 511.808594 158.097656 Z M 495.804688 271.976562 L 535.417969 277.546875 L 540.984375 237.933594 L 501.371094 232.367188 Z M 485.367188 346.25 L 524.976562 351.816406 L 530.546875 312.203125 L 490.933594 306.636719 Z M 474.929688 420.519531 L 514.539062 426.085938 L 520.105469 386.472656 L 480.496094 380.90625 Z M 464.492188 494.789062 L 504.101562 500.355469 L 509.667969 460.746094 L 470.058594 455.179688 Z M 454.054688 569.058594 L 493.664062 574.625 L 499.230469 535.015625 L 459.621094 529.449219 Z M 443.617188 643.328125 L 483.226562 648.894531 L 488.792969 609.285156 L 449.183594 603.71875 Z M 443.617188 643.328125 "/>
</g>
</g>
<g clip-path="url(#clip3)" clip-rule="nonzero">
<g clip-path="url(#clip4)" clip-rule="nonzero">
<path style=" stroke:none;fill-rule:nonzero;fill:rgb(58.4%,34.5%,69.8%);fill-opacity:1;" d="M 416.625 424.441406 L 416.652344 424.285156 L 415.203125 430.910156 L 413.4375 437.382812 L 411.371094 443.703125 L 409 449.863281 L 406.351562 455.863281 L 403.421875 461.6875 L 400.230469 467.339844 L 396.773438 472.792969 L 393.0625 478.066406 L 389.113281 483.136719 L 384.941406 488.003906 L 380.542969 492.644531 L 375.929688 497.078125 L 371.117188 501.277344 L 366.117188 505.238281 L 360.925781 508.953125 L 355.5625 512.425781 L 350.035156 515.632812 L 344.355469 518.582031 L 338.527344 521.253906 L 332.566406 523.652344 L 326.480469 525.761719 L 320.28125 527.582031 L 313.96875 529.09375 L 307.5625 530.308594 L 301.0625 531.203125 L 294.488281 531.78125 L 287.84375 532.027344 L 281.136719 531.9375 L 274.375 531.503906 L 267.574219 530.730469 L 260.8125 529.597656 L 254.183594 528.148438 L 247.710938 526.382812 L 241.390625 524.316406 L 235.226562 521.945312 L 229.226562 519.296875 L 223.398438 516.367188 L 217.757812 513.171875 L 212.292969 509.710938 L 207.027344 506.003906 L 201.953125 502.054688 L 197.09375 497.882812 L 192.441406 493.484375 L 188.015625 488.875 L 183.816406 484.0625 L 179.863281 479.0625 L 176.136719 473.871094 L 172.667969 468.503906 L 169.453125 462.980469 L 166.511719 457.300781 L 163.832031 451.46875 L 161.4375 445.511719 L 159.328125 439.429688 L 157.515625 433.230469 L 155.996094 426.914062 L 154.785156 420.507812 L 153.886719 414.011719 L 153.316406 407.4375 L 153.066406 400.789062 L 153.160156 394.082031 L 153.589844 387.324219 L 153.574219 387.472656 L 209.019531 395.265625 L 209.375 392.230469 L 209.125 396.144531 L 209.070312 400.027344 L 209.214844 403.886719 L 209.546875 407.6875 L 210.066406 411.453125 L 210.761719 415.167969 L 211.648438 418.832031 L 212.695312 422.417969 L 213.917969 425.945312 L 215.308594 429.394531 L 216.855469 432.765625 L 218.558594 436.054688 L 220.425781 439.257812 L 222.429688 442.355469 L 224.585938 445.367188 L 226.871094 448.25 L 229.296875 451.03125 L 231.859375 453.703125 L 234.554688 456.253906 L 237.363281 458.660156 L 240.296875 460.949219 L 243.351562 463.097656 L 246.523438 465.105469 L 249.785156 466.949219 L 253.164062 468.652344 L 256.640625 470.1875 L 260.21875 471.5625 L 263.878906 472.757812 L 267.625 473.78125 L 271.445312 474.617188 L 275.359375 475.277344 L 279.296875 475.726562 L 283.207031 475.972656 L 287.082031 476.019531 L 290.941406 475.882812 L 294.746094 475.542969 L 298.507812 475.027344 L 302.21875 474.328125 L 305.886719 473.449219 L 309.480469 472.390625 L 313 471.171875 L 316.445312 469.785156 L 319.824219 468.242188 L 323.113281 466.53125 L 326.3125 464.675781 L 329.410156 462.671875 L 332.425781 460.519531 L 335.3125 458.21875 L 338.09375 455.800781 L 340.761719 453.234375 L 343.3125 450.539062 L 345.722656 447.722656 L 348.007812 444.792969 L 350.152344 441.742188 L 352.164062 438.578125 L 354.011719 435.300781 L 355.710938 431.929688 L 357.246094 428.457031 L 358.621094 424.882812 L 359.816406 421.214844 L 360.839844 417.476562 L 361.675781 413.652344 L 361.167969 416.648438 "/>
</g>
</g>
<g clip-path="url(#clip5)" clip-rule="nonzero">
<g clip-path="url(#clip6)" clip-rule="nonzero">
<path style=" stroke:none;fill-rule:nonzero;fill:rgb(79.6%,23.5%,20%);fill-opacity:1;" d="M 390.585938 208.71875 L 446.039062 216.511719 L 418.761719 410.605469 L 363.308594 402.8125 "/>
</g>
</g>
<g clip-path="url(#clip7)" clip-rule="nonzero">
<g clip-path="url(#clip8)" clip-rule="nonzero">
<path style=" stroke:none;fill-rule:nonzero;fill:rgb(22%,59.6%,14.9%);fill-opacity:1;" d="M 227.03125 115.042969 L 455.78125 147.191406 L 447.988281 202.648438 L 219.238281 170.5 "/>
</g>
</g>
</g>
</svg>
